<svg width="750" height="1000" viewBox="0 0 750 1000" fill="none" xmlns="http://www.w3.org/2000/svg">
<g clip-path="url(#clip0_22_24)">
<rect width="750" height="1000" fill="white"/>
<path d="M423.657 90.0324C373.265 46.1184 354.473 -43.6124 351.375 -82.9885L813.78 -22.0571L770.989 302.685C773.13 240.844 744.969 167.043 681.043 131.512C601.136 87.097 486.648 144.925 423.657 90.0324Z" fill="#4A90E2"/>
<path d="M240.662 766.584C187.157 735.812 57.927 710.706 0 702V1014H779V867.735C770.046 872.484 743.038 877.613 706.637 860.137C661.136 838.292 633.726 813.598 527.374 839.717C421.022 865.836 307.543 805.05 240.662 766.584Z" fill="#4A90E2"/>
<g clip-path="url(#clip1_22_24)">
<path d="M28.8276 43.2287L50.9778 54.5854L83.3517 42.5106C84.9861 41.9011 85.1237 39.6596 83.5757 38.8579L61.3032 27.3212C60.5844 26.949 59.74 26.8977 58.9809 27.1807L27.7684 38.812C27.0558 39.0776 26.4429 39.5568 26.0255 40.1885C24.635 42.2929 22.1784 47.4732 26.1984 53.7278C26.5469 54.2698 27.0352 54.7113 27.6125 55.0032L50.9776 66.8104L83.6866 54.5139C84.4568 54.2248 84.9663 53.4931 84.9663 52.676C84.9663 51.3033 83.584 50.3539 82.2893 50.8368L50.9778 62.5424L29.2651 51.4751C29.2651 51.4751 25.8386 47.5689 28.8276 43.2287Z" fill="#4A90E2"/>
<path d="M50.9777 57.458C50.8971 57.458 50.8166 57.4398 50.7426 57.4038L29.7256 47.1686C29.4614 47.0399 29.3522 46.7229 29.4819 46.4605C29.6113 46.1983 29.9306 46.0899 30.1955 46.2186L51.0056 56.353L83.5911 44.1944C83.8665 44.0916 84.174 44.2296 84.2779 44.5034C84.3816 44.7769 84.2421 45.0821 83.9665 45.1849L51.1652 57.4241C51.1048 57.4467 51.041 57.458 50.9777 57.458Z" fill="#C6C6C6"/>
<path d="M50.978 60.5584C50.9002 60.5584 50.8223 60.5415 50.7504 60.5078L30.0952 50.8314C29.829 50.7066 29.7149 50.3914 29.8408 50.1271C29.9666 49.863 30.2846 49.7497 30.5506 49.8746L51.0017 59.4554L83.5917 47.2951C83.867 47.192 84.1746 47.3303 84.2785 47.6041C84.3821 47.8776 84.2426 48.1828 83.9671 48.2856L51.1657 60.5248C51.1051 60.5472 51.0416 60.5584 50.978 60.5584Z" fill="#C6C6C6"/>
<path d="M43.475 52.7885L37.0295 49.6707C36.1318 49.2103 35.0615 49.8571 35.0615 50.8597V63.1403L38.443 61.9119L41.8244 66.5621V54.1909C41.8242 53.6679 42.2047 52.7885 43.475 52.7885Z" fill="#FF2525"/>
<path d="M40.8288 57.0991C40.8288 57.4329 40.5562 57.7032 40.22 57.7032C39.8839 57.7032 39.6113 57.4327 39.6113 57.0991C39.6113 56.7656 39.8839 56.4951 40.22 56.4951C40.5562 56.4951 40.8288 56.7656 40.8288 57.0991Z" fill="#4A90E2"/>
</g>
<path d="M99.96 61V34.92H108.72C110.533 34.92 112.16 35.12 113.6 35.52C115.04 35.8933 116.173 36.5467 117 37.48C117.853 38.4133 118.28 39.72 118.28 41.4C118.28 42.5733 117.92 43.7067 117.2 44.8C116.48 45.8933 115.347 46.64 113.8 47.04V47.2C115.667 47.52 117.08 48.1867 118.04 49.2C119 50.1867 119.48 51.56 119.48 53.32C119.48 55.08 119.04 56.5333 118.16 57.68C117.28 58.8 116.08 59.64 114.56 60.2C113.067 60.7333 111.373 61 109.48 61H99.96ZM105.84 45.4H108.44C109.88 45.4 110.92 45.12 111.56 44.56C112.2 43.9733 112.52 43.1867 112.52 42.2C112.52 41.24 112.187 40.56 111.52 40.16C110.88 39.7333 109.867 39.52 108.48 39.52H105.84V45.4ZM105.84 56.4H109C110.6 56.4 111.787 56.1067 112.56 55.52C113.333 54.9333 113.72 54.0533 113.72 52.88C113.72 51.7333 113.333 50.9067 112.56 50.4C111.787 49.8933 110.6 49.64 109 49.64H105.84V56.4ZM132.984 61.48C131.251 61.48 129.611 61.08 128.064 60.28C126.518 59.4533 125.264 58.2667 124.304 56.72C123.344 55.1467 122.864 53.2667 122.864 51.08C122.864 48.8933 123.344 47.0267 124.304 45.48C125.264 43.9067 126.518 42.72 128.064 41.92C129.611 41.0933 131.251 40.68 132.984 40.68C134.718 40.68 136.358 41.0933 137.904 41.92C139.451 42.72 140.704 43.9067 141.664 45.48C142.624 47.0267 143.104 48.8933 143.104 51.08C143.104 53.2667 142.624 55.1467 141.664 56.72C140.704 58.2667 139.451 59.4533 137.904 60.28C136.358 61.08 134.718 61.48 132.984 61.48ZM132.984 56.72C133.891 56.72 134.638 56.4933 135.224 56.04C135.838 55.5867 136.291 54.9333 136.584 54.08C136.904 53.2267 137.064 52.2267 137.064 51.08C137.064 49.9333 136.904 48.9333 136.584 48.08C136.291 47.2267 135.838 46.5733 135.224 46.12C134.638 45.6667 133.891 45.44 132.984 45.44C132.078 45.44 131.318 45.6667 130.704 46.12C130.118 46.5733 129.664 47.2267 129.344 48.08C129.051 48.9333 128.904 49.9333 128.904 51.08C128.904 52.2267 129.051 53.2267 129.344 54.08C129.664 54.9333 130.118 55.5867 130.704 56.04C131.318 56.4933 132.078 56.72 132.984 56.72ZM156.969 61.48C155.235 61.48 153.595 61.08 152.049 60.28C150.502 59.4533 149.249 58.2667 148.289 56.72C147.329 55.1467 146.849 53.2667 146.849 51.08C146.849 48.8933 147.329 47.0267 148.289 45.48C149.249 43.9067 150.502 42.72 152.049 41.92C153.595 41.0933 155.235 40.68 156.969 40.68C158.702 40.68 160.342 41.0933 161.889 41.92C163.435 42.72 164.689 43.9067 165.649 45.48C166.609 47.0267 167.089 48.8933 167.089 51.08C167.089 53.2667 166.609 55.1467 165.649 56.72C164.689 58.2667 163.435 59.4533 161.889 60.28C160.342 61.08 158.702 61.48 156.969 61.48ZM156.969 56.72C157.875 56.72 158.622 56.4933 159.209 56.04C159.822 55.5867 160.275 54.9333 160.569 54.08C160.889 53.2267 161.049 52.2267 161.049 51.08C161.049 49.9333 160.889 48.9333 160.569 48.08C160.275 47.2267 159.822 46.5733 159.209 46.12C158.622 45.6667 157.875 45.44 156.969 45.44C156.062 45.44 155.302 45.6667 154.689 46.12C154.102 46.5733 153.649 47.2267 153.329 48.08C153.035 48.9333 152.889 49.9333 152.889 51.08C152.889 52.2267 153.035 53.2267 153.329 54.08C153.649 54.9333 154.102 55.5867 154.689 56.04C155.302 56.4933 156.062 56.72 156.969 56.72ZM171.993 61V32.96H177.873V49.16H178.033L185.313 41.16H191.753L177.873 56V61H171.993ZM185.993 61L180.233 52L183.593 48.36L192.353 61H185.993ZM204.858 61.48C203.098 61.48 201.351 61.16 199.618 60.52C197.911 59.88 196.351 58.9467 194.938 57.72L198.338 53.68C199.324 54.48 200.404 55.1333 201.578 55.64C202.778 56.1467 204.004 56.4 205.258 56.4C206.511 56.4 207.431 56.1867 208.018 55.76C208.631 55.3333 208.938 54.7867 208.938 54.12C208.938 53.5067 208.778 53.0267 208.458 52.68C208.138 52.3067 207.671 51.9867 207.058 51.72C206.444 51.4267 205.724 51.1067 204.898 50.76L201.538 49.32C200.578 48.9467 199.671 48.4533 198.817 47.84C197.964 47.2 197.271 46.4267 196.738 45.52C196.231 44.5867 195.978 43.48 195.978 42.2C195.978 40.76 196.378 39.4667 197.178 38.32C198.004 37.1467 199.124 36.2133 200.538 35.52C201.978 34.8 203.644 34.44 205.538 34.44C207.111 34.44 208.658 34.7333 210.178 35.32C211.698 35.9067 213.044 36.76 214.218 37.88L211.218 41.6C210.311 40.9333 209.404 40.4267 208.498 40.08C207.591 39.7067 206.498 39.52 205.218 39.52C204.258 39.52 203.471 39.72 202.858 40.12C202.244 40.52 201.938 41.1067 201.938 41.88C201.938 42.3867 202.124 42.8133 202.498 43.16C202.871 43.5067 203.378 43.8133 204.018 44.08C204.658 44.3467 205.391 44.64 206.218 44.96L209.378 46.32C210.551 46.7467 211.551 47.28 212.378 47.92C213.204 48.5333 213.844 49.2933 214.298 50.2C214.751 51.1067 214.977 52.1733 214.977 53.4C214.977 54.84 214.578 56.1733 213.778 57.4C213.004 58.6267 211.858 59.6133 210.338 60.36C208.844 61.1067 207.018 61.48 204.858 61.48ZM232.442 61.48C230.335 61.48 228.655 61.12 227.402 60.4C226.175 59.6533 225.282 58.6267 224.722 57.32C224.162 56.0133 223.882 54.4933 223.882 52.76V45.76H218.922V41.4L224.162 41.16L224.922 35.08H229.762V41.16H238.162V45.76H229.762V52.72C229.762 53.7067 229.909 54.5067 230.202 55.12C230.495 55.7333 230.949 56.1867 231.562 56.48C232.175 56.7467 232.962 56.88 233.922 56.88C234.695 56.88 235.402 56.8133 236.042 56.68C236.682 56.5467 237.295 56.3733 237.882 56.16L238.922 60.4C238.042 60.6667 237.069 60.9067 236.002 61.12C234.962 61.36 233.775 61.48 232.442 61.48ZM252.906 61.48C251.173 61.48 249.533 61.08 247.986 60.28C246.44 59.4533 245.186 58.2667 244.226 56.72C243.266 55.1467 242.786 53.2667 242.786 51.08C242.786 48.8933 243.266 47.0267 244.226 45.48C245.186 43.9067 246.44 42.72 247.986 41.92C249.533 41.0933 251.173 40.68 252.906 40.68C254.64 40.68 256.28 41.0933 257.826 41.92C259.373 42.72 260.626 43.9067 261.586 45.48C262.546 47.0267 263.026 48.8933 263.026 51.08C263.026 53.2667 262.546 55.1467 261.586 56.72C260.626 58.2667 259.373 59.4533 257.826 60.28C256.28 61.08 254.64 61.48 252.906 61.48ZM252.906 56.72C253.813 56.72 254.56 56.4933 255.146 56.04C255.76 55.5867 256.213 54.9333 256.506 54.08C256.826 53.2267 256.986 52.2267 256.986 51.08C256.986 49.9333 256.826 48.9333 256.506 48.08C256.213 47.2267 255.76 46.5733 255.146 46.12C254.56 45.6667 253.813 45.44 252.906 45.44C252 45.44 251.24 45.6667 250.626 46.12C250.04 46.5733 249.586 47.2267 249.266 48.08C248.973 48.9333 248.826 49.9333 248.826 51.08C248.826 52.2267 248.973 53.2267 249.266 54.08C249.586 54.9333 250.04 55.5867 250.626 56.04C251.24 56.4933 252 56.72 252.906 56.72ZM269.531 61V41.16H274.331L274.811 45.48H274.931C275.917 43.8533 277.104 42.6533 278.491 41.88C279.904 41.08 281.397 40.68 282.971 40.68C283.851 40.68 284.557 40.7467 285.091 40.88C285.651 41.0133 286.224 41.2133 286.811 41.48L285.611 46.4C284.997 46.2133 284.437 46.08 283.931 46C283.451 45.8933 282.837 45.84 282.091 45.84C280.864 45.84 279.651 46.2 278.451 46.92C277.277 47.64 276.264 48.8933 275.411 50.68V61H269.531ZM302.075 61.48C300.022 61.48 298.155 61.08 296.475 60.28C294.822 59.4533 293.502 58.2667 292.515 56.72C291.555 55.1467 291.075 53.2667 291.075 51.08C291.075 48.92 291.568 47.0667 292.555 45.52C293.542 43.9467 294.822 42.7467 296.395 41.92C297.968 41.0933 299.635 40.68 301.395 40.68C303.448 40.68 305.168 41.1067 306.555 41.96C307.942 42.7867 308.982 43.92 309.675 45.36C310.395 46.7733 310.755 48.3867 310.755 50.2C310.755 50.7333 310.715 51.2533 310.635 51.76C310.582 52.24 310.528 52.6 310.475 52.84H295.435V48.88H306.515L305.595 50C305.595 48.4 305.248 47.2 304.555 46.4C303.888 45.5733 302.902 45.16 301.595 45.16C300.635 45.16 299.795 45.3733 299.075 45.8C298.355 46.2267 297.795 46.88 297.395 47.76C296.995 48.64 296.795 49.7467 296.795 51.08C296.795 52.44 297.035 53.56 297.515 54.44C297.995 55.2933 298.688 55.9333 299.595 56.36C300.502 56.7867 301.595 57 302.875 57C303.782 57 304.635 56.88 305.435 56.64C306.262 56.4 307.115 56.0533 307.995 55.6L309.955 59.16C308.808 59.88 307.542 60.4533 306.155 60.88C304.768 61.28 303.408 61.48 302.075 61.48Z" fill="#4A90E2"/>
</g>
<defs>
<clipPath id="clip0_22_24">
<rect width="750" height="1000" fill="white"/>
</clipPath>
<clipPath id="clip1_22_24">
<rect width="61" height="40" fill="white" transform="translate(24 27)"/>
</clipPath>
</defs>
</svg>
