<?xml version="1.0" encoding="utf-8"?>
<!-- Generator: Adobe Illustrator 27.5.0, SVG Export Plug-In . SVG Version: 6.00 Build 0)  -->
<svg version="1.1" xmlns="http://www.w3.org/2000/svg" xmlns:xlink="http://www.w3.org/1999/xlink" x="0px" y="0px"
	 viewBox="0 0 500 500" style="enable-background:new 0 0 500 500;" xml:space="preserve">
<g id="Background_Complete">
	<g>
		<rect y="382.398" style="fill:#EBEBEB;" width="500" height="0.25"/>
		<rect x="394.667" y="398.494" style="fill:#EBEBEB;" width="55.235" height="0.25"/>
		<rect x="321.807" y="393.25" style="fill:#EBEBEB;" width="8.693" height="0.25"/>
		<rect x="372.474" y="389.208" style="fill:#EBEBEB;" width="19.192" height="0.25"/>
		<rect x="52.459" y="390.888" style="fill:#EBEBEB;" width="43.193" height="0.25"/>
		<rect x="215.333" y="397.347" style="fill:#EBEBEB;" width="45.722" height="0.25"/>
		<rect x="140.464" y="393.125" style="fill:#EBEBEB;" width="93.676" height="0.25"/>
		<path style="fill:#EBEBEB;" d="M242.721,332.092c0,3.147-2.561,5.708-5.707,5.708H43.915c-3.147,0-5.708-2.561-5.708-5.708V60.66
			c0-3.147,2.561-5.708,5.708-5.708h193.099c3.146,0,5.707,2.561,5.707,5.708 M242.471,60.66c0-3.009-2.448-5.458-5.457-5.458
			H43.915c-3.01,0-5.458,2.448-5.458,5.458v271.432c0,3.01,2.448,5.458,5.458,5.458h193.099c3.009,0,5.457-2.448,5.457-5.458"/>
		<path style="fill:#EBEBEB;" d="M453.31,337.8H260.212c-3.147,0-5.707-2.561-5.707-5.708V60.66c0-3.147,2.561-5.708,5.707-5.708
			H453.31c3.148,0,5.708,2.561,5.708,5.708v271.432C459.019,335.239,456.458,337.8,453.31,337.8z M260.212,55.203
			c-3.009,0-5.457,2.448-5.457,5.458v271.432c0,3.01,2.448,5.458,5.457,5.458H453.31c3.01,0,5.458-2.448,5.458-5.458V60.66
			c0-3.009-2.448-5.458-5.458-5.458H260.212z"/>
	</g>
	<g>
		<g>
			<rect x="273.158" y="124.804" style="fill:#E6E6E6;" width="66.353" height="76.93"/>
			<rect x="274.159" y="124.804" style="fill:#F0F0F0;" width="69.976" height="76.93"/>
			
				<rect x="276.545" y="134.143" transform="matrix(-1.836970e-16 1 -1 -1.836970e-16 472.4166 -145.8787)" style="fill:#FFFFFF;" width="65.205" height="58.252"/>
			<g>
				<path style="fill:#F0F0F0;" d="M323.324,178.009h-15.12c-7.607,0-13.796-6.189-13.796-13.796v-15.12
					c0-0.311,0.252-0.563,0.563-0.563h15.12c7.607,0,13.796,6.189,13.796,13.796v15.12
					C323.887,177.757,323.635,178.009,323.324,178.009z M295.534,149.656v14.557c0,6.986,5.684,12.67,12.67,12.67h14.557v-14.557
					c0-6.986-5.684-12.67-12.67-12.67H295.534z"/>
			</g>
		</g>
		<g>
			<g>
				<polygon style="fill:#EBEBEB;" points="435.378,153.714 359.414,153.714 366.143,97.98 428.648,97.98 				"/>
				<rect x="370.767" y="153.715" style="fill:#E0E0E0;" width="1.221" height="21.35"/>
				<circle style="fill:#E0E0E0;" cx="371.377" cy="175.064" r="1.458"/>
				<polygon style="fill:#F5F5F5;" points="418.708,153.714 405.647,153.714 402.882,97.98 414.932,97.98 				"/>
			</g>
			<rect x="393.597" y="153.714" style="fill:#F0F0F0;" width="7.596" height="228.684"/>
			<path style="fill:#F0F0F0;" d="M409.423,382.398h-24.055l0,0c0-2.831,2.295-5.126,5.126-5.126h13.803
				C407.128,377.272,409.423,379.567,409.423,382.398L409.423,382.398z"/>
			<rect x="393.597" y="153.714" style="fill:#E0E0E0;" width="7.596" height="4.642"/>
		</g>
		<g>
			<g>
				<path style="fill:#F0F0F0;" d="M388.577,274.326v0.008c-0.608,0-1.219,0.013-1.836,0.055
					c-12.961,0.885-23.441,11.421-24.268,24.386c-0.189,2.961,0.117,5.824,0.841,8.514c2.985,11.087,4.101,22.594,4.101,34.075
					v33.458c0,2.426,1.966,4.392,4.392,4.392h16.768h16.768h38.464V274.326H388.577z"/>
				<path style="fill:#F5F5F5;" d="M469.966,300.483c0-15.054-12.716-27.138-27.993-26.095
					c-12.961,0.884-23.441,11.421-24.268,24.386c-0.189,2.961,0.117,5.824,0.841,8.514c2.985,11.087,4.101,22.594,4.101,34.075
					v33.458c0,2.426,1.966,4.393,4.392,4.393h33.536c2.426,0,4.392-1.967,4.392-4.393v-35.422c0-10.77,1.173-21.547,4.051-31.925
					C469.637,305.249,469.966,302.905,469.966,300.483z"/>
			</g>
			<rect x="311.304" y="315.53" style="fill:#F0F0F0;" width="119.261" height="63.684"/>
			<path style="fill:#E0E0E0;" d="M355.841,232.096h-87.995c-10.934,0-19.036,8.864-18.097,19.797l6.704,78.035h127.59
				l-6.704-78.035C376.4,240.96,366.775,232.096,355.841,232.096z"/>
			<path style="fill:#F5F5F5;" d="M381.721,232.096h-89.903c-10.407,0-18.119,8.437-17.225,18.844l6.786,78.989h127.59
				l-6.786-78.989C401.289,240.533,392.128,232.096,381.721,232.096z"/>
			<path style="fill:#E0E0E0;" d="M428.541,309.716H313.26c-1.08,0-1.956,0.875-1.956,1.956v22.024c0,1.08,0.876,1.956,1.956,1.956
				h115.281c3.616,0,6.547-2.931,6.547-6.547v-12.841C435.088,312.647,432.157,309.716,428.541,309.716z"/>
			<g>
				<path style="fill:#F0F0F0;" d="M247.052,274.326v0.008c-0.608,0-1.219,0.013-1.836,0.055
					c-12.961,0.885-23.441,11.421-24.268,24.386c-0.189,2.961,0.117,5.824,0.841,8.514c2.985,11.087,4.101,22.594,4.101,34.075
					v33.458c0,2.426,1.967,4.392,4.392,4.392h16.768h16.768h38.464V274.326H247.052z"/>
				<path style="fill:#F5F5F5;" d="M328.442,300.483c0-15.054-12.717-27.138-27.993-26.095
					c-12.961,0.884-23.441,11.421-24.268,24.386c-0.189,2.961,0.117,5.824,0.841,8.514c2.985,11.087,4.101,22.594,4.101,34.075
					v33.458c0,2.426,1.967,4.393,4.392,4.393h33.536c2.426,0,4.392-1.967,4.392-4.393v-35.422c0-10.77,1.173-21.547,4.051-31.925
					C328.112,305.249,328.442,302.905,328.442,300.483z"/>
			</g>
			<path style="fill:#E0E0E0;" d="M430.541,382.398H248.919c-1.759,0-3.184-1.426-3.184-3.184l0,0h187.99l0,0
				C433.725,380.973,432.299,382.398,430.541,382.398z"/>
		</g>
		<g>
			<g>
				<g>
					<rect x="46.111" y="89.833" style="fill:#E6E6E6;" width="21.918" height="292.565"/>
					
						<rect x="68.03" y="89.833" transform="matrix(-1 -1.224647e-16 1.224647e-16 -1 328.4247 472.2317)" style="fill:#F5F5F5;" width="192.366" height="292.565"/>
					
						<rect x="20.082" y="145.676" transform="matrix(-1.836970e-16 1 -1 -1.836970e-16 402.4807 74.0559)" style="fill:#E6E6E6;" width="288.26" height="185.184"/>
					
						<rect x="-64.761" y="230.519" transform="matrix(-1.836970e-16 1 -1 -1.836970e-16 317.6378 158.8988)" style="fill:#E0E0E0;" width="288.26" height="15.498"/>
					
						<rect x="163.032" y="235.304" transform="matrix(-1.836970e-16 1 -1 -1.836970e-16 494.0533 163.6835)" style="fill:#F5F5F5;" width="4.305" height="187.129"/>
					
						<rect x="163.032" y="174.904" transform="matrix(-1.836970e-16 1 -1 -1.836970e-16 433.6533 103.2834)" style="fill:#F5F5F5;" width="4.305" height="187.129"/>
					
						<rect x="163.032" y="114.504" transform="matrix(-1.836970e-16 1 -1 -1.836970e-16 373.2532 42.8834)" style="fill:#F5F5F5;" width="4.305" height="187.129"/>
					
						<rect x="163.032" y="54.104" transform="matrix(-1.836970e-16 1 -1 -1.836970e-16 312.8531 -17.5166)" style="fill:#F5F5F5;" width="4.305" height="187.129"/>
				</g>
			</g>
			<g>
				<g>
					
						<rect x="88.115" y="104.482" transform="matrix(-1 -1.224647e-16 1.224647e-16 -1 204.0588 249.9978)" style="fill:#FAFAFA;" width="27.829" height="41.034"/>
					<path style="fill:#F0F0F0;" d="M118.917,104.482h-5.348c-0.837,0-1.515,0.678-1.515,1.515V144c0,0.837,0.678,1.515,1.515,1.515
						h5.348c0.837,0,1.515-0.678,1.515-1.515v-38.003C120.433,105.16,119.754,104.482,118.917,104.482z"/>
				</g>
				<g>
					
						<rect x="78.746" y="104.482" transform="matrix(-1 -1.224647e-16 1.224647e-16 -1 185.3214 249.9978)" style="fill:#FAFAFA;" width="27.829" height="41.034"/>
					<path style="fill:#E6E6E6;" d="M109.549,104.482h-5.348c-0.837,0-1.515,0.678-1.515,1.515V144c0,0.837,0.678,1.515,1.515,1.515
						h5.348c0.837,0,1.515-0.678,1.515-1.515v-38.003C111.064,105.16,110.386,104.482,109.549,104.482z"/>
				</g>
				<g>
					<polygon style="fill:#FAFAFA;" points="71.62,104.482 95.635,104.482 93.726,145.516 71.62,145.516 					"/>
					<path style="fill:#F0F0F0;" d="M98.74,104.482h-5.611c-0.764,0-1.419,0.743-1.461,1.659l-1.755,37.715
						c-0.043,0.916,0.542,1.659,1.307,1.659h5.611c0.764,0,1.419-0.743,1.461-1.659l1.755-37.715
						C100.09,105.225,99.504,104.482,98.74,104.482z"/>
				</g>
			</g>
			<g>
				<g>
					
						<rect x="216.819" y="110.878" transform="matrix(-1 -1.224647e-16 1.224647e-16 -1 454.7371 256.3941)" style="fill:#FAFAFA;" width="21.098" height="34.638"/>
					<path style="fill:#F0F0F0;" d="M240.108,110.878h-3.928c-0.669,0-1.212,0.543-1.212,1.212v32.213
						c0,0.67,0.543,1.212,1.212,1.212h3.928c0.669,0,1.212-0.543,1.212-1.212V112.09
						C241.321,111.421,240.778,110.878,240.108,110.878z"/>
				</g>
				<g>
					
						<rect x="209.717" y="110.878" transform="matrix(-1 -1.224647e-16 1.224647e-16 -1 440.5318 256.3941)" style="fill:#FAFAFA;" width="21.098" height="34.638"/>
					<path style="fill:#E6E6E6;" d="M233.006,110.878h-3.928c-0.669,0-1.212,0.543-1.212,1.212v32.213
						c0,0.67,0.543,1.212,1.212,1.212h3.928c0.669,0,1.212-0.543,1.212-1.212V112.09
						C234.218,111.421,233.675,110.878,233.006,110.878z"/>
				</g>
				<g>
					<polygon style="fill:#FAFAFA;" points="204.315,110.878 222.521,110.878 221.073,145.516 204.315,145.516 					"/>
					<path style="fill:#F0F0F0;" d="M224.875,110.878h-4.254c-0.579,0-1.076,0.627-1.108,1.401l-1.331,31.836
						c-0.032,0.773,0.411,1.401,0.991,1.401h4.254c0.579,0,1.076-0.627,1.108-1.401l1.331-31.836
						C225.898,111.505,225.454,110.878,224.875,110.878z"/>
				</g>
			</g>
			<g>
				<g>
					
						<rect x="189.611" y="110.878" transform="matrix(-1 -1.224647e-16 1.224647e-16 -1 400.3211 256.3941)" style="fill:#FAFAFA;" width="21.098" height="34.638"/>
					<path style="fill:#F0F0F0;" d="M212.9,110.878h-3.928c-0.669,0-1.212,0.543-1.212,1.212v32.213c0,0.67,0.543,1.212,1.212,1.212
						h3.928c0.669,0,1.212-0.543,1.212-1.212V112.09C214.113,111.421,213.57,110.878,212.9,110.878z"/>
				</g>
				<g>
					
						<rect x="182.509" y="110.878" transform="matrix(-1 -1.224647e-16 1.224647e-16 -1 386.1158 256.3941)" style="fill:#FAFAFA;" width="21.098" height="34.638"/>
					<path style="fill:#E6E6E6;" d="M205.798,110.878h-3.928c-0.669,0-1.212,0.543-1.212,1.212v32.213
						c0,0.67,0.543,1.212,1.212,1.212h3.928c0.669,0,1.212-0.543,1.212-1.212V112.09
						C207.01,111.421,206.467,110.878,205.798,110.878z"/>
				</g>
				<g>
					<polygon style="fill:#FAFAFA;" points="177.107,110.878 195.313,110.878 193.865,145.516 177.107,145.516 					"/>
					<path style="fill:#F0F0F0;" d="M197.667,110.878h-4.254c-0.579,0-1.075,0.627-1.108,1.401l-1.331,31.836
						c-0.032,0.773,0.411,1.401,0.991,1.401h4.254c0.579,0,1.076-0.627,1.108-1.401l1.331-31.836
						C198.69,111.505,198.246,110.878,197.667,110.878z"/>
				</g>
			</g>
			<g>
				<g>
					
						<rect x="149.867" y="108.284" transform="matrix(-1 -1.224647e-16 1.224647e-16 -1 314.4397 253.8002)" style="fill:#FAFAFA;" width="14.706" height="37.231"/>
					<path style="fill:#F0F0F0;" d="M165.896,108.284h-2.329c-0.579,0-1.049,0.47-1.049,1.049v35.133
						c0,0.579,0.47,1.049,1.049,1.049h2.329c0.579,0,1.049-0.47,1.049-1.049v-35.133
						C166.945,108.754,166.475,108.284,165.896,108.284z"/>
				</g>
				<g>
					
						<rect x="137.613" y="104.482" transform="matrix(-1 -1.224647e-16 1.224647e-16 -1 291.435 249.9978)" style="fill:#FAFAFA;" width="16.208" height="41.034"/>
					<path style="fill:#F5F5F5;" d="M155.279,104.482h-2.567c-0.639,0-1.156,0.518-1.156,1.156v38.721
						c0,0.639,0.518,1.156,1.156,1.156h2.567c0.639,0,1.156-0.518,1.156-1.156v-38.721C156.436,105,155.918,104.482,155.279,104.482
						z"/>
				</g>
				<g>
					<polygon style="fill:#FAFAFA;" points="133.463,104.482 147.45,104.482 146.338,145.516 133.463,145.516 					"/>
					<path style="fill:#F0F0F0;" d="M149.258,104.482h-3.268c-0.445,0-0.826,0.743-0.851,1.659l-1.022,37.715
						c-0.025,0.916,0.316,1.659,0.761,1.659h3.268c0.445,0,0.826-0.743,0.851-1.659l1.022-37.715
						C150.044,105.225,149.703,104.482,149.258,104.482z"/>
				</g>
			</g>
			<g>
				<g>
					
						<rect x="162.212" y="164.882" transform="matrix(-1 -1.224647e-16 1.224647e-16 -1 352.253 370.7979)" style="fill:#FAFAFA;" width="27.829" height="41.034"/>
					<path style="fill:#F0F0F0;" d="M193.014,164.882h-5.348c-0.837,0-1.515,0.678-1.515,1.515V204.4
						c0,0.837,0.678,1.515,1.515,1.515h5.348c0.837,0,1.515-0.678,1.515-1.515v-38.003
						C194.53,165.561,193.851,164.882,193.014,164.882z"/>
				</g>
				<g>
					
						<rect x="152.843" y="164.882" transform="matrix(-1 -1.224647e-16 1.224647e-16 -1 333.5157 370.7979)" style="fill:#FAFAFA;" width="27.829" height="41.034"/>
					<path style="fill:#E6E6E6;" d="M183.646,164.882h-5.348c-0.837,0-1.515,0.678-1.515,1.515V204.4
						c0,0.837,0.679,1.515,1.515,1.515h5.348c0.837,0,1.515-0.678,1.515-1.515v-38.003
						C185.161,165.561,184.483,164.882,183.646,164.882z"/>
				</g>
				<g>
					<polygon style="fill:#FAFAFA;" points="145.717,164.882 169.733,164.882 167.823,205.916 145.717,205.916 					"/>
					<path style="fill:#F0F0F0;" d="M172.837,164.882h-5.611c-0.764,0-1.419,0.743-1.461,1.659l-1.755,37.715
						c-0.043,0.916,0.542,1.659,1.307,1.659h5.611c0.764,0,1.418-0.743,1.461-1.659l1.755-37.715
						C174.187,165.625,173.602,164.882,172.837,164.882z"/>
				</g>
			</g>
			<g>
				<g>
					
						<rect x="204.87" y="171.278" transform="matrix(-1 -1.224647e-16 1.224647e-16 -1 426.7885 377.1942)" style="fill:#FAFAFA;" width="17.049" height="34.637"/>
					<path style="fill:#F0F0F0;" d="M223.579,171.278h-2.954c-0.602,0-1.09,0.488-1.09,1.09v32.458c0,0.602,0.488,1.09,1.09,1.09
						h2.954c0.602,0,1.09-0.488,1.09-1.09v-32.458C224.669,171.766,224.181,171.278,223.579,171.278z"/>
				</g>
				<g>
					
						<rect x="199.13" y="171.278" transform="matrix(-1 -1.224647e-16 1.224647e-16 -1 415.3096 377.1942)" style="fill:#FAFAFA;" width="17.049" height="34.637"/>
					<path style="fill:#E6E6E6;" d="M217.839,171.278h-2.953c-0.602,0-1.09,0.488-1.09,1.09v32.458c0,0.602,0.488,1.09,1.09,1.09
						h2.953c0.602,0,1.09-0.488,1.09-1.09v-32.458C218.929,171.766,218.441,171.278,217.839,171.278z"/>
				</g>
				<g>
					<polygon style="fill:#FAFAFA;" points="194.765,171.278 209.477,171.278 208.307,205.916 194.765,205.916 					"/>
					<path style="fill:#F0F0F0;" d="M211.379,171.278h-3.437c-0.468,0-0.869,0.627-0.895,1.4l-1.075,31.836
						c-0.026,0.773,0.332,1.4,0.801,1.4h3.437c0.468,0,0.869-0.627,0.895-1.4l1.075-31.836
						C212.206,171.905,211.847,171.278,211.379,171.278z"/>
				</g>
			</g>
			<g>
				<g>
					
						<rect x="233.314" y="177.224" transform="matrix(-1 -1.224647e-16 1.224647e-16 -1 480.7508 383.1398)" style="fill:#FAFAFA;" width="14.122" height="28.692"/>
					<path style="fill:#F0F0F0;" d="M248.812,177.224h-2.447c-0.499,0-0.903,0.404-0.903,0.903v26.887
						c0,0.499,0.404,0.903,0.903,0.903h2.447c0.498,0,0.903-0.404,0.903-0.903v-26.887
						C249.714,177.628,249.31,177.224,248.812,177.224z"/>
				</g>
				<g>
					
						<rect x="228.56" y="177.224" transform="matrix(-1 -1.224647e-16 1.224647e-16 -1 471.2423 383.1398)" style="fill:#FAFAFA;" width="14.122" height="28.692"/>
					<path style="fill:#E6E6E6;" d="M244.057,177.224h-2.447c-0.499,0-0.903,0.404-0.903,0.903v26.887
						c0,0.499,0.404,0.903,0.903,0.903h2.447c0.499,0,0.903-0.404,0.903-0.903v-26.887
						C244.96,177.628,244.556,177.224,244.057,177.224z"/>
				</g>
				<g>
					<polygon style="fill:#FAFAFA;" points="224.944,177.224 237.131,177.224 236.162,205.916 224.944,205.916 					"/>
					<path style="fill:#F0F0F0;" d="M238.706,177.224h-2.847c-0.388,0-0.72,0.519-0.742,1.16l-0.891,26.372
						c-0.022,0.641,0.275,1.16,0.663,1.16h2.847c0.388,0,0.72-0.519,0.742-1.16l0.891-26.372
						C239.391,177.743,239.094,177.224,238.706,177.224z"/>
				</g>
			</g>
			<g>
				<g>
					
						<rect x="117.607" y="171.278" transform="matrix(-1 -1.224647e-16 1.224647e-16 -1 256.3115 377.1942)" style="fill:#FAFAFA;" width="21.098" height="34.637"/>
					<path style="fill:#F0F0F0;" d="M140.896,171.278h-3.928c-0.669,0-1.212,0.543-1.212,1.212v32.213
						c0,0.669,0.543,1.212,1.212,1.212h3.928c0.669,0,1.212-0.543,1.212-1.212v-32.213
						C142.108,171.821,141.565,171.278,140.896,171.278z"/>
				</g>
				<g>
					
						<rect x="110.504" y="171.278" transform="matrix(-1 -1.224647e-16 1.224647e-16 -1 242.1063 377.1942)" style="fill:#FAFAFA;" width="21.098" height="34.637"/>
					<path style="fill:#E6E6E6;" d="M133.793,171.278h-3.928c-0.669,0-1.212,0.543-1.212,1.212v32.213
						c0,0.669,0.543,1.212,1.212,1.212h3.928c0.669,0,1.212-0.543,1.212-1.212v-32.213
						C135.005,171.821,134.462,171.278,133.793,171.278z"/>
				</g>
				<g>
					<polygon style="fill:#FAFAFA;" points="105.102,171.278 123.308,171.278 121.86,205.916 105.102,205.916 					"/>
					<path style="fill:#F0F0F0;" d="M125.662,171.278h-4.254c-0.579,0-1.076,0.627-1.108,1.4l-1.331,31.836
						c-0.032,0.773,0.411,1.4,0.991,1.4h4.254c0.579,0,1.076-0.627,1.108-1.4l1.331-31.836
						C126.685,171.905,126.242,171.278,125.662,171.278z"/>
				</g>
			</g>
			<g>
				<g>
					
						<rect x="88.024" y="168.684" transform="matrix(-1 -1.224647e-16 1.224647e-16 -1 190.7536 374.6002)" style="fill:#FAFAFA;" width="14.706" height="37.231"/>
					<path style="fill:#F0F0F0;" d="M104.052,168.684h-2.329c-0.579,0-1.049,0.47-1.049,1.049v35.133c0,0.58,0.47,1.049,1.049,1.049
						h2.329c0.58,0,1.049-0.47,1.049-1.049v-35.133C105.102,169.154,104.632,168.684,104.052,168.684z"/>
				</g>
				<g>
					
						<rect x="75.77" y="164.882" transform="matrix(-1 -1.224647e-16 1.224647e-16 -1 167.7489 370.7979)" style="fill:#FAFAFA;" width="16.208" height="41.034"/>
					<path style="fill:#F5F5F5;" d="M93.436,164.882h-2.567c-0.639,0-1.157,0.518-1.157,1.156v38.721
						c0,0.639,0.518,1.156,1.157,1.156h2.567c0.639,0,1.156-0.518,1.156-1.156v-38.721C94.593,165.4,94.075,164.882,93.436,164.882z
						"/>
				</g>
				<g>
					<polygon style="fill:#FAFAFA;" points="71.62,164.882 85.607,164.882 84.495,205.916 71.62,205.916 					"/>
					<path style="fill:#F0F0F0;" d="M87.415,164.882h-3.268c-0.445,0-0.826,0.743-0.851,1.659l-1.022,37.715
						c-0.025,0.916,0.316,1.659,0.761,1.659h3.268c0.445,0,0.826-0.743,0.851-1.659l1.022-37.715
						C88.201,165.625,87.86,164.882,87.415,164.882z"/>
				</g>
			</g>
			<g>
				<g>
					
						<rect x="88.115" y="225.282" transform="matrix(-1 -1.224647e-16 1.224647e-16 -1 204.0588 491.598)" style="fill:#FAFAFA;" width="27.829" height="41.034"/>
					<path style="fill:#F0F0F0;" d="M118.917,225.282h-5.348c-0.837,0-1.515,0.678-1.515,1.515v38.003
						c0,0.837,0.678,1.515,1.515,1.515h5.348c0.837,0,1.515-0.678,1.515-1.515v-38.003
						C120.433,225.961,119.754,225.282,118.917,225.282z"/>
				</g>
				<g>
					
						<rect x="78.746" y="225.282" transform="matrix(-1 -1.224647e-16 1.224647e-16 -1 185.3214 491.598)" style="fill:#FAFAFA;" width="27.829" height="41.034"/>
					<path style="fill:#E6E6E6;" d="M109.549,225.282h-5.348c-0.837,0-1.515,0.678-1.515,1.515v38.003
						c0,0.837,0.678,1.515,1.515,1.515h5.348c0.837,0,1.515-0.678,1.515-1.515v-38.003
						C111.064,225.961,110.386,225.282,109.549,225.282z"/>
				</g>
				<g>
					<polygon style="fill:#FAFAFA;" points="71.62,225.282 95.635,225.282 93.726,266.316 71.62,266.316 					"/>
					<path style="fill:#F0F0F0;" d="M98.74,225.282h-5.611c-0.764,0-1.419,0.743-1.461,1.659l-1.755,37.715
						c-0.043,0.916,0.542,1.659,1.307,1.659h5.611c0.764,0,1.419-0.743,1.461-1.659l1.755-37.715
						C100.09,226.025,99.504,225.282,98.74,225.282z"/>
				</g>
			</g>
			<g>
				<g>
					
						<rect x="216.819" y="231.678" transform="matrix(-1 -1.224647e-16 1.224647e-16 -1 454.7371 497.9943)" style="fill:#FAFAFA;" width="21.098" height="34.638"/>
					<path style="fill:#F0F0F0;" d="M240.108,231.678h-3.928c-0.669,0-1.212,0.543-1.212,1.212v32.213
						c0,0.669,0.543,1.212,1.212,1.212h3.928c0.669,0,1.212-0.543,1.212-1.212v-32.213
						C241.321,232.221,240.778,231.678,240.108,231.678z"/>
				</g>
				<g>
					
						<rect x="209.717" y="231.678" transform="matrix(-1 -1.224647e-16 1.224647e-16 -1 440.5318 497.9943)" style="fill:#FAFAFA;" width="21.098" height="34.638"/>
					<path style="fill:#E6E6E6;" d="M233.006,231.678h-3.928c-0.669,0-1.212,0.543-1.212,1.212v32.213
						c0,0.669,0.543,1.212,1.212,1.212h3.928c0.669,0,1.212-0.543,1.212-1.212v-32.213
						C234.218,232.221,233.675,231.678,233.006,231.678z"/>
				</g>
				<g>
					<polygon style="fill:#FAFAFA;" points="204.315,231.678 222.521,231.678 221.073,266.316 204.315,266.316 					"/>
					<path style="fill:#F0F0F0;" d="M224.875,231.678h-4.254c-0.579,0-1.076,0.627-1.108,1.401l-1.331,31.836
						c-0.032,0.773,0.411,1.401,0.991,1.401h4.254c0.579,0,1.076-0.627,1.108-1.401l1.331-31.836
						C225.898,232.305,225.454,231.678,224.875,231.678z"/>
				</g>
			</g>
			<g>
				<g>
					
						<rect x="189.611" y="231.678" transform="matrix(-1 -1.224647e-16 1.224647e-16 -1 400.3211 497.9943)" style="fill:#FAFAFA;" width="21.098" height="34.638"/>
					<path style="fill:#F0F0F0;" d="M212.9,231.678h-3.928c-0.669,0-1.212,0.543-1.212,1.212v32.213
						c0,0.669,0.543,1.212,1.212,1.212h3.928c0.669,0,1.212-0.543,1.212-1.212v-32.213
						C214.113,232.221,213.57,231.678,212.9,231.678z"/>
				</g>
				<g>
					
						<rect x="182.509" y="231.678" transform="matrix(-1 -1.224647e-16 1.224647e-16 -1 386.1158 497.9943)" style="fill:#FAFAFA;" width="21.098" height="34.638"/>
					<path style="fill:#E6E6E6;" d="M205.798,231.678h-3.928c-0.669,0-1.212,0.543-1.212,1.212v32.213
						c0,0.669,0.543,1.212,1.212,1.212h3.928c0.669,0,1.212-0.543,1.212-1.212v-32.213
						C207.01,232.221,206.467,231.678,205.798,231.678z"/>
				</g>
				<g>
					<polygon style="fill:#FAFAFA;" points="177.107,231.678 195.313,231.678 193.865,266.316 177.107,266.316 					"/>
					<path style="fill:#F0F0F0;" d="M197.667,231.678h-4.254c-0.579,0-1.075,0.627-1.108,1.401l-1.331,31.836
						c-0.032,0.773,0.411,1.401,0.991,1.401h4.254c0.579,0,1.076-0.627,1.108-1.401l1.331-31.836
						C198.69,232.305,198.246,231.678,197.667,231.678z"/>
				</g>
			</g>
			<g>
				<g>
					
						<rect x="149.867" y="229.085" transform="matrix(-1 -1.224647e-16 1.224647e-16 -1 314.4397 495.4004)" style="fill:#FAFAFA;" width="14.706" height="37.231"/>
					<path style="fill:#F0F0F0;" d="M165.896,229.085h-2.329c-0.579,0-1.049,0.47-1.049,1.049v35.133
						c0,0.579,0.47,1.049,1.049,1.049h2.329c0.579,0,1.049-0.47,1.049-1.049v-35.133
						C166.945,229.554,166.475,229.085,165.896,229.085z"/>
				</g>
				<g>
					
						<rect x="137.613" y="225.282" transform="matrix(-1 -1.224647e-16 1.224647e-16 -1 291.435 491.598)" style="fill:#FAFAFA;" width="16.208" height="41.034"/>
					<path style="fill:#F5F5F5;" d="M155.279,225.282h-2.567c-0.639,0-1.156,0.518-1.156,1.156v38.721
						c0,0.639,0.518,1.156,1.156,1.156h2.567c0.639,0,1.156-0.518,1.156-1.156v-38.721
						C156.436,225.8,155.918,225.282,155.279,225.282z"/>
				</g>
				<g>
					<polygon style="fill:#FAFAFA;" points="133.463,225.282 147.45,225.282 146.338,266.316 133.463,266.316 					"/>
					<path style="fill:#F0F0F0;" d="M149.258,225.282h-3.268c-0.445,0-0.826,0.743-0.851,1.659l-1.022,37.715
						c-0.025,0.916,0.316,1.659,0.761,1.659h3.268c0.445,0,0.826-0.743,0.851-1.659l1.022-37.715
						C150.044,226.025,149.703,225.282,149.258,225.282z"/>
				</g>
			</g>
			<g>
				<g>
					
						<rect x="82.186" y="341.365" transform="matrix(-1 -1.224647e-16 1.224647e-16 -1 182.1988 723.763)" style="fill:#FAFAFA;" width="17.827" height="41.034"/>
					<path style="fill:#F0F0F0;" d="M101.675,341.365h-2.941c-0.67,0-1.213,0.543-1.213,1.213v38.608
						c0,0.67,0.543,1.213,1.213,1.213h2.941c0.67,0,1.213-0.543,1.213-1.213v-38.608
						C102.888,341.908,102.345,341.365,101.675,341.365z"/>
				</g>
				<g>
					
						<rect x="76.185" y="341.365" transform="matrix(-1 -1.224647e-16 1.224647e-16 -1 170.1963 723.763)" style="fill:#FAFAFA;" width="17.827" height="41.034"/>
					<path style="fill:#E6E6E6;" d="M95.674,341.365h-2.941c-0.67,0-1.213,0.543-1.213,1.213v38.608c0,0.67,0.543,1.213,1.213,1.213
						h2.941c0.67,0,1.213-0.543,1.213-1.213v-38.608C96.887,341.908,96.344,341.365,95.674,341.365z"/>
				</g>
				<g>
					<polygon style="fill:#FAFAFA;" points="71.62,341.365 87.004,341.365 85.78,382.398 71.62,382.398 					"/>
					<path style="fill:#F0F0F0;" d="M88.992,341.365h-3.594c-0.49,0-0.909,0.743-0.936,1.659l-1.124,37.715
						c-0.027,0.916,0.348,1.659,0.837,1.659h3.594c0.49,0,0.909-0.743,0.936-1.659l1.124-37.715
						C89.857,342.108,89.482,341.365,88.992,341.365z"/>
				</g>
			</g>
			<g>
				<g>
					
						<rect x="231.356" y="347.761" transform="matrix(-1 -1.224647e-16 1.224647e-16 -1 481.3057 730.1593)" style="fill:#FAFAFA;" width="18.594" height="34.638"/>
					<path style="fill:#F0F0F0;" d="M251.811,347.761h-3.322c-0.628,0-1.138,0.509-1.138,1.138v32.362
						c0,0.628,0.51,1.138,1.138,1.138h3.322c0.629,0,1.138-0.51,1.138-1.138v-32.362
						C252.949,348.27,252.439,347.761,251.811,347.761z"/>
				</g>
				<g>
					
						<rect x="225.096" y="347.761" transform="matrix(-1 -1.224647e-16 1.224647e-16 -1 468.7867 730.1593)" style="fill:#FAFAFA;" width="18.594" height="34.638"/>
					<path style="fill:#E6E6E6;" d="M245.551,347.761h-3.322c-0.628,0-1.138,0.509-1.138,1.138v32.362
						c0,0.628,0.51,1.138,1.138,1.138h3.322c0.628,0,1.138-0.51,1.138-1.138v-32.362C246.689,348.27,246.18,347.761,245.551,347.761
						z"/>
				</g>
				<g>
					<polygon style="fill:#FAFAFA;" points="220.336,347.761 236.381,347.761 235.105,382.398 220.336,382.398 					"/>
					<path style="fill:#F0F0F0;" d="M238.455,347.761h-3.749c-0.511,0-0.948,0.627-0.976,1.401l-1.173,31.836
						c-0.029,0.774,0.362,1.401,0.873,1.401h3.749c0.511,0,0.948-0.627,0.976-1.401l1.173-31.836
						C239.357,348.388,238.966,347.761,238.455,347.761z"/>
				</g>
			</g>
			<g>
				<g>
					
						<rect x="207.378" y="347.761" transform="matrix(-1 -1.224647e-16 1.224647e-16 -1 433.3493 730.1593)" style="fill:#FAFAFA;" width="18.594" height="34.638"/>
					<path style="fill:#F0F0F0;" d="M227.833,347.761h-3.322c-0.629,0-1.138,0.509-1.138,1.138v32.362
						c0,0.628,0.509,1.138,1.138,1.138h3.322c0.628,0,1.138-0.51,1.138-1.138v-32.362
						C228.971,348.27,228.461,347.761,227.833,347.761z"/>
				</g>
				<g>
					
						<rect x="201.118" y="347.761" transform="matrix(-1 -1.224647e-16 1.224647e-16 -1 420.8303 730.1593)" style="fill:#FAFAFA;" width="18.594" height="34.638"/>
					<path style="fill:#E6E6E6;" d="M221.573,347.761h-3.322c-0.628,0-1.138,0.509-1.138,1.138v32.362
						c0,0.628,0.51,1.138,1.138,1.138h3.322c0.629,0,1.138-0.51,1.138-1.138v-32.362
						C222.711,348.27,222.202,347.761,221.573,347.761z"/>
				</g>
				<g>
					<polygon style="fill:#FAFAFA;" points="196.357,347.761 212.403,347.761 211.127,382.398 196.357,382.398 					"/>
					<path style="fill:#F0F0F0;" d="M214.477,347.761h-3.749c-0.511,0-0.948,0.627-0.976,1.401l-1.173,31.836
						c-0.028,0.774,0.362,1.401,0.873,1.401h3.749c0.511,0,0.948-0.627,0.976-1.401l1.173-31.836
						C215.379,348.388,214.988,347.761,214.477,347.761z"/>
				</g>
			</g>
			<g>
				<g>
					
						<rect x="188.296" y="345.167" transform="matrix(-1 -1.224647e-16 1.224647e-16 -1 389.5523 727.5654)" style="fill:#FAFAFA;" width="12.96" height="37.231"/>
					<path style="fill:#F0F0F0;" d="M202.362,345.167h-1.932c-0.544,0-0.985,0.441-0.985,0.985v35.261
						c0,0.544,0.441,0.985,0.985,0.985h1.932c0.544,0,0.985-0.441,0.985-0.985v-35.261
						C203.347,345.608,202.906,345.167,202.362,345.167z"/>
				</g>
				<g>
					
						<rect x="177.497" y="341.365" transform="matrix(-1 -1.224647e-16 1.224647e-16 -1 369.2784 723.763)" style="fill:#FAFAFA;" width="14.284" height="41.034"/>
					<path style="fill:#F5F5F5;" d="M192.999,341.365h-2.129c-0.6,0-1.086,0.486-1.086,1.086v38.863
						c0,0.599,0.486,1.086,1.086,1.086h2.129c0.6,0,1.086-0.486,1.086-1.086V342.45
						C194.085,341.851,193.599,341.365,192.999,341.365z"/>
				</g>
				<g>
					<polygon style="fill:#FAFAFA;" points="173.84,341.365 186.166,341.365 185.186,382.398 173.84,382.398 					"/>
					<path style="fill:#F0F0F0;" d="M187.76,341.365h-2.88c-0.392,0-0.728,0.743-0.75,1.659l-0.901,37.715
						c-0.022,0.916,0.278,1.659,0.671,1.659h2.88c0.392,0,0.728-0.743,0.75-1.659l0.901-37.715
						C188.452,342.108,188.152,341.365,187.76,341.365z"/>
				</g>
			</g>
			<g>
				<g>
					
						<rect x="162.212" y="285.682" transform="matrix(-1 -1.224647e-16 1.224647e-16 -1 352.253 612.3982)" style="fill:#FAFAFA;" width="27.829" height="41.034"/>
					<path style="fill:#F0F0F0;" d="M193.014,285.682h-5.348c-0.837,0-1.515,0.678-1.515,1.515v38.003
						c0,0.837,0.678,1.515,1.515,1.515h5.348c0.837,0,1.515-0.678,1.515-1.515v-38.003
						C194.53,286.361,193.851,285.682,193.014,285.682z"/>
				</g>
				<g>
					
						<rect x="152.843" y="285.682" transform="matrix(-1 -1.224647e-16 1.224647e-16 -1 333.5157 612.3982)" style="fill:#FAFAFA;" width="27.829" height="41.034"/>
					<path style="fill:#E6E6E6;" d="M183.646,285.682h-5.348c-0.837,0-1.515,0.678-1.515,1.515v38.003
						c0,0.837,0.679,1.515,1.515,1.515h5.348c0.837,0,1.515-0.678,1.515-1.515v-38.003
						C185.161,286.361,184.483,285.682,183.646,285.682z"/>
				</g>
				<g>
					<polygon style="fill:#FAFAFA;" points="145.717,285.682 169.733,285.682 167.823,326.716 145.717,326.716 					"/>
					<path style="fill:#F0F0F0;" d="M172.837,285.682h-5.611c-0.764,0-1.419,0.743-1.461,1.659l-1.755,37.715
						c-0.043,0.916,0.542,1.659,1.307,1.659h5.611c0.764,0,1.418-0.743,1.461-1.659l1.755-37.715
						C174.187,286.425,173.602,285.682,172.837,285.682z"/>
				</g>
			</g>
			<g>
				<g>
					
						<rect x="204.87" y="292.078" transform="matrix(-1 -1.224647e-16 1.224647e-16 -1 426.7885 618.7945)" style="fill:#FAFAFA;" width="17.049" height="34.638"/>
					<path style="fill:#F0F0F0;" d="M223.579,292.078h-2.954c-0.602,0-1.09,0.488-1.09,1.09v32.458c0,0.602,0.488,1.09,1.09,1.09
						h2.954c0.602,0,1.09-0.488,1.09-1.09v-32.458C224.669,292.566,224.181,292.078,223.579,292.078z"/>
				</g>
				<g>
					
						<rect x="199.13" y="292.078" transform="matrix(-1 -1.224647e-16 1.224647e-16 -1 415.3096 618.7945)" style="fill:#FAFAFA;" width="17.049" height="34.638"/>
					<path style="fill:#E6E6E6;" d="M217.839,292.078h-2.953c-0.602,0-1.09,0.488-1.09,1.09v32.458c0,0.602,0.488,1.09,1.09,1.09
						h2.953c0.602,0,1.09-0.488,1.09-1.09v-32.458C218.929,292.566,218.441,292.078,217.839,292.078z"/>
				</g>
				<g>
					<polygon style="fill:#FAFAFA;" points="194.765,292.078 209.477,292.078 208.307,326.716 194.765,326.716 					"/>
					<path style="fill:#F0F0F0;" d="M211.379,292.078h-3.437c-0.468,0-0.869,0.627-0.895,1.401l-1.075,31.836
						c-0.026,0.773,0.332,1.401,0.801,1.401h3.437c0.468,0,0.869-0.627,0.895-1.401l1.075-31.836
						C212.206,292.706,211.847,292.078,211.379,292.078z"/>
				</g>
			</g>
			<g>
				<g>
					
						<rect x="233.314" y="298.024" transform="matrix(-1 -1.224647e-16 1.224647e-16 -1 480.7508 624.7401)" style="fill:#FAFAFA;" width="14.122" height="28.692"/>
					<path style="fill:#F0F0F0;" d="M248.812,298.024h-2.447c-0.499,0-0.903,0.404-0.903,0.903v26.887
						c0,0.499,0.404,0.903,0.903,0.903h2.447c0.498,0,0.903-0.404,0.903-0.903v-26.887
						C249.714,298.428,249.31,298.024,248.812,298.024z"/>
				</g>
				<g>
					
						<rect x="228.56" y="298.024" transform="matrix(-1 -1.224647e-16 1.224647e-16 -1 471.2423 624.7401)" style="fill:#FAFAFA;" width="14.122" height="28.692"/>
					<path style="fill:#E6E6E6;" d="M244.057,298.024h-2.447c-0.499,0-0.903,0.404-0.903,0.903v26.887
						c0,0.499,0.404,0.903,0.903,0.903h2.447c0.499,0,0.903-0.404,0.903-0.903v-26.887
						C244.96,298.428,244.556,298.024,244.057,298.024z"/>
				</g>
				<g>
					<polygon style="fill:#FAFAFA;" points="224.944,298.024 237.131,298.024 236.162,326.716 224.944,326.716 					"/>
					<path style="fill:#F0F0F0;" d="M238.706,298.024h-2.847c-0.388,0-0.72,0.519-0.742,1.16l-0.891,26.372
						c-0.022,0.641,0.275,1.16,0.663,1.16h2.847c0.388,0,0.72-0.52,0.742-1.16l0.891-26.372
						C239.391,298.543,239.094,298.024,238.706,298.024z"/>
				</g>
			</g>
			<g>
				<g>
					
						<rect x="117.607" y="292.078" transform="matrix(-1 -1.224647e-16 1.224647e-16 -1 256.3115 618.7945)" style="fill:#FAFAFA;" width="21.098" height="34.638"/>
					<path style="fill:#F0F0F0;" d="M140.896,292.078h-3.928c-0.669,0-1.212,0.543-1.212,1.212v32.213
						c0,0.669,0.543,1.212,1.212,1.212h3.928c0.669,0,1.212-0.543,1.212-1.212v-32.213
						C142.108,292.621,141.565,292.078,140.896,292.078z"/>
				</g>
				<g>
					
						<rect x="110.504" y="292.078" transform="matrix(-1 -1.224647e-16 1.224647e-16 -1 242.1063 618.7945)" style="fill:#FAFAFA;" width="21.098" height="34.638"/>
					<path style="fill:#E6E6E6;" d="M133.793,292.078h-3.928c-0.669,0-1.212,0.543-1.212,1.212v32.213
						c0,0.669,0.543,1.212,1.212,1.212h3.928c0.669,0,1.212-0.543,1.212-1.212v-32.213
						C135.005,292.621,134.462,292.078,133.793,292.078z"/>
				</g>
				<g>
					<polygon style="fill:#FAFAFA;" points="105.102,292.078 123.308,292.078 121.86,326.716 105.102,326.716 					"/>
					<path style="fill:#F0F0F0;" d="M125.662,292.078h-4.254c-0.579,0-1.076,0.627-1.108,1.401l-1.331,31.836
						c-0.032,0.773,0.411,1.401,0.991,1.401h4.254c0.579,0,1.076-0.627,1.108-1.401l1.331-31.836
						C126.685,292.706,126.242,292.078,125.662,292.078z"/>
				</g>
			</g>
			<g>
				<g>
					
						<rect x="88.024" y="289.485" transform="matrix(-1 -1.224647e-16 1.224647e-16 -1 190.7536 616.2006)" style="fill:#FAFAFA;" width="14.706" height="37.231"/>
					<path style="fill:#F0F0F0;" d="M104.052,289.485h-2.329c-0.579,0-1.049,0.47-1.049,1.049v35.133
						c0,0.579,0.47,1.049,1.049,1.049h2.329c0.58,0,1.049-0.47,1.049-1.049v-35.133
						C105.102,289.954,104.632,289.485,104.052,289.485z"/>
				</g>
				<g>
					
						<rect x="75.77" y="285.682" transform="matrix(-1 -1.224647e-16 1.224647e-16 -1 167.7489 612.3982)" style="fill:#FAFAFA;" width="16.208" height="41.034"/>
					<path style="fill:#F5F5F5;" d="M93.436,285.682h-2.567c-0.639,0-1.157,0.518-1.157,1.156v38.721
						c0,0.639,0.518,1.156,1.157,1.156h2.567c0.639,0,1.156-0.518,1.156-1.156v-38.721C94.593,286.2,94.075,285.682,93.436,285.682z
						"/>
				</g>
				<g>
					<polygon style="fill:#FAFAFA;" points="71.62,285.682 85.607,285.682 84.495,326.716 71.62,326.716 					"/>
					<path style="fill:#F0F0F0;" d="M87.415,285.682h-3.268c-0.445,0-0.826,0.743-0.851,1.659l-1.022,37.715
						c-0.025,0.916,0.316,1.659,0.761,1.659h3.268c0.445,0,0.826-0.743,0.851-1.659l1.022-37.715
						C88.201,286.425,87.86,285.682,87.415,285.682z"/>
				</g>
			</g>
			<g>
				<g>
					
						<rect x="154.338" y="338.082" transform="matrix(-1 -1.224647e-16 1.224647e-16 -1 329.3094 720.4805)" style="fill:#FAFAFA;" width="20.634" height="44.316"/>
					<path style="fill:#F0F0F0;" d="M176.944,338.082h-3.5c-0.749,0-1.356,0.607-1.356,1.356v41.604
						c0,0.749,0.607,1.356,1.356,1.356h3.5c0.749,0,1.356-0.607,1.356-1.356v-41.604C178.3,338.689,177.693,338.082,176.944,338.082
						z"/>
				</g>
				<g>
					
						<rect x="147.391" y="338.082" transform="matrix(-1 -1.224647e-16 1.224647e-16 -1 315.4166 720.4805)" style="fill:#FAFAFA;" width="20.634" height="44.316"/>
					<path style="fill:#E6E6E6;" d="M169.997,338.082h-3.5c-0.749,0-1.356,0.607-1.356,1.356v41.604
						c0,0.749,0.607,1.356,1.356,1.356h3.5c0.749,0,1.356-0.607,1.356-1.356v-41.604
						C171.354,338.689,170.746,338.082,169.997,338.082z"/>
				</g>
				<g>
					<polygon style="fill:#FAFAFA;" points="142.108,338.082 159.914,338.082 158.498,382.398 142.108,382.398 					"/>
					<path style="fill:#F0F0F0;" d="M162.216,338.082h-4.16c-0.567,0-1.052,0.802-1.083,1.792l-1.301,40.732
						c-0.032,0.99,0.402,1.792,0.969,1.792h4.16c0.567,0,1.052-0.802,1.083-1.792l1.301-40.732
						C163.216,338.884,162.783,338.082,162.216,338.082z"/>
				</g>
			</g>
			<g>
				<g>
					
						<rect x="123.585" y="343.822" transform="matrix(-1 -1.224647e-16 1.224647e-16 -1 264.9966 726.2204)" style="fill:#FAFAFA;" width="17.827" height="38.576"/>
					<path style="fill:#F0F0F0;" d="M143.111,343.822h-3.015c-0.649,0-1.176,0.527-1.176,1.176v36.225
						c0,0.649,0.527,1.176,1.176,1.176h3.015c0.65,0,1.176-0.527,1.176-1.176v-36.225
						C144.287,344.349,143.76,343.822,143.111,343.822z"/>
				</g>
				<g>
					
						<rect x="117.584" y="343.822" transform="matrix(-1 -1.224647e-16 1.224647e-16 -1 252.994 726.2204)" style="fill:#FAFAFA;" width="17.827" height="38.576"/>
					<path style="fill:#E6E6E6;" d="M137.11,343.822h-3.015c-0.65,0-1.176,0.527-1.176,1.176v36.225
						c0,0.649,0.527,1.176,1.176,1.176h3.015c0.649,0,1.176-0.527,1.176-1.176v-36.225
						C138.286,344.349,137.759,343.822,137.11,343.822z"/>
				</g>
				<g>
					<polygon style="fill:#FAFAFA;" points="113.019,343.822 128.402,343.822 127.179,382.398 113.019,382.398 					"/>
					<path style="fill:#F0F0F0;" d="M130.391,343.822h-3.594c-0.49,0-0.909,0.698-0.936,1.56l-1.124,35.457
						c-0.027,0.861,0.347,1.56,0.837,1.56h3.594c0.49,0,0.909-0.698,0.936-1.56l1.124-35.457
						C131.256,344.52,130.881,343.822,130.391,343.822z"/>
				</g>
			</g>
		</g>
	</g>
</g>
<g id="Background_Simple" style="display:none;">
	<g style="display:inline;">
		<path style="fill:#407BFF;" d="M371.519,351.284c11.366-19.206,1.007-52.369-8.728-67.339c-11.2-17.223-30.93-24.578-49.351-30.15
			c-23.238-7.029-36.538-12.302-45.323-37.447c-7.729-22.124-10.856-45.669-20.814-66.828
			c-20.364-43.267-53.753-87.175-105.131-71.427C95.048,92.536,66.766,141.09,92.596,187.086
			c21.808,38.834,73.184,7.392,80.417,60.155c6.736,49.138-49.203,91.47-17.233,138.01c31.799,46.291,75.37-22.877,109.403-41.775
			c21.845-12.13,25.181,17.039,42.524,27.115C328.674,382.772,357.14,375.579,371.519,351.284z"/>
		<path style="opacity:0.9;fill:#FFFFFF;" d="M371.519,351.284c11.366-19.206,1.007-52.369-8.728-67.339
			c-11.2-17.223-30.93-24.578-49.351-30.15c-23.238-7.029-36.538-12.302-45.323-37.447c-7.729-22.124-10.856-45.669-20.814-66.828
			c-20.364-43.267-53.753-87.175-105.131-71.427C95.048,92.536,66.766,141.09,92.596,187.086
			c21.808,38.834,73.184,7.392,80.417,60.155c6.736,49.138-49.203,91.47-17.233,138.01c31.799,46.291,75.37-22.877,109.403-41.775
			c21.845-12.13,25.181,17.039,42.524,27.115C328.674,382.772,357.14,375.579,371.519,351.284z"/>
	</g>
</g>
<g id="Shadow_1_">
	<ellipse id="_x3C_Path_x3E__146_" style="fill:#F5F5F5;" cx="250" cy="416.238" rx="193.889" ry="11.323"/>
</g>
<g id="Books">
	<g>
		<g>
			<path style="fill:#407BFF;" d="M230.127,413.624c0.409,1.299-0.599,2.615-1.961,2.615H88.829c-4.353,0-4.353-28.331,0-28.331
				h139.338c1.362,0,2.369,1.315,1.961,2.615C228.431,395.917,228.431,408.228,230.127,413.624z"/>
			<path style="opacity:0.8;fill:#FFFFFF;" d="M229.932,391.217h-84.529c-3.337,0-3.337,21.71,0,21.71h84.529
				C228.504,407.48,228.504,396.665,229.932,391.217z"/>
			<path style="opacity:0.2;" d="M141.19,413.624c0.409,1.299-0.599,2.615-1.96,2.615h-50.4c-4.353,0-4.353-28.331,0-28.331h50.4
				c1.362,0,2.369,1.315,1.96,2.615C139.493,395.917,139.493,408.228,141.19,413.624z"/>
			<path style="fill:#407BFF;" d="M110.307,387.907H98.803c-4.353,0-4.353,28.331,0,28.331h11.504
				C105.954,416.238,105.954,387.907,110.307,387.907z"/>
			<path style="fill:#407BFF;" d="M119.379,387.907h-4.521c-4.353,0-4.353,28.331,0,28.331h4.521
				C115.026,416.238,115.026,387.907,119.379,387.907z"/>
		</g>
		<g>
			<path style="fill:#263238;" d="M80.705,385.557c-0.479,1.168,0.703,2.351,2.3,2.351h125.287c5.107,0,5.107-25.471,0-25.471
				H83.006c-1.598,0-2.78,1.183-2.3,2.351C82.696,369.637,82.696,380.706,80.705,385.557z"/>
			<path style="opacity:0.2;" d="M80.705,385.557c-0.479,1.168,0.703,2.351,2.3,2.351h61.439c5.107,0,5.107-25.471,0-25.471H83.006
				c-1.598,0-2.78,1.183-2.3,2.351C82.696,369.637,82.696,380.706,80.705,385.557z"/>
			<path style="opacity:0.8;fill:#FFFFFF;" d="M80.935,365.412h60.984c3.915,0,3.915,19.519,0,19.519H80.935
				C82.61,380.034,82.61,370.31,80.935,365.412z"/>
			<path style="opacity:0.2;fill:#FFFFFF;" d="M162.189,368.116c-0.379-1.128,0.718-2.224,2.238-2.224h35.077
				c3.721,0,3.721,18.559,0,18.559h-35.077c-1.52,0-2.617-1.096-2.238-2.224C163.389,378.658,163.389,371.686,162.189,368.116z"/>
		</g>
	</g>
	<g>
		<g>
			<g>
				<path style="fill:#407BFF;" d="M415.732,374.194c0.432,1.511-0.633,3.042-2.071,3.042H266.456c-4.598,0-4.598-32.964,0-32.964
					h147.205c1.439,0,2.503,1.531,2.071,3.042C413.939,353.591,413.939,367.917,415.732,374.194z"/>
				<path style="opacity:0.5;fill:#FFFFFF;" d="M415.732,374.194c0.432,1.511-0.633,3.042-2.071,3.042H266.456
					c-4.598,0-4.598-32.964,0-32.964h147.205c1.439,0,2.503,1.531,2.071,3.042C413.939,353.591,413.939,367.917,415.732,374.194z"/>
			</g>
			<path style="opacity:0.8;fill:#FFFFFF;" d="M415.525,348.124h-89.302c-3.525,0-3.525,25.261,0,25.261h89.302
				C414.017,367.047,414.017,354.462,415.525,348.124z"/>
			<path style="opacity:0.6;fill:#407BFF;" d="M321.773,374.194c0.432,1.511-0.633,3.042-2.071,3.042h-53.246
				c-4.598,0-4.598-32.964,0-32.964h53.246c1.439,0,2.503,1.531,2.071,3.042C319.981,353.591,319.981,367.917,321.773,374.194z"/>
			<path style="opacity:0.5;fill:#FFFFFF;" d="M300.165,346.714c0.396-1.182-0.356-2.442-1.5-2.442h-20.3
				c-4.598,0-4.598,32.964,0,32.964h20.3c1.144,0,1.896-1.26,1.5-2.442C298.122,368.69,298.122,352.818,300.165,346.714z"/>
		</g>
		<g>
			<g>
				<path style="fill:#407BFF;" d="M405.172,412.612c0.613,1.788-0.897,3.599-2.939,3.599l-152.947,0.026
					c-6.526,0.001-6.531-38.997-0.005-38.998l152.947-0.026c2.042,0,3.552,1.81,2.94,3.598
					C402.624,388.239,402.627,405.186,405.172,412.612z"/>
				<path style="opacity:0.2;fill:#FFFFFF;" d="M405.172,412.612c0.613,1.788-0.897,3.599-2.939,3.599l-152.947,0.026
					c-6.526,0.001-6.531-38.997-0.005-38.998l152.947-0.026c2.042,0,3.552,1.81,2.94,3.598
					C402.624,388.239,402.627,405.186,405.172,412.612z"/>
			</g>
			<path style="opacity:0.8;fill:#FFFFFF;" d="M404.874,381.77l-92.478,0.016c-5.003,0.001-4.999,29.885,0.004,29.884l92.477-0.016
				C402.737,404.157,402.735,389.269,404.874,381.77z"/>
			<path style="opacity:0.6;fill:#407BFF;" d="M306.085,412.629c0.613,1.788-0.897,3.599-2.939,3.599l-53.86,0.009
				c-6.526,0.001-6.531-38.997-0.005-38.998l53.86-0.009c2.042,0,3.552,1.81,2.94,3.598
				C303.538,388.256,303.54,405.203,306.085,412.629z"/>
			<path style="opacity:0.5;fill:#FFFFFF;" d="M273.82,378.591c0.391-0.599-0.096-1.355-0.856-1.354l-9.151,0.002
				c-6.526,0.001-6.521,38.999,0.005,38.998l9.151-0.002c0.76,0,1.247-0.756,0.856-1.355
				C269.892,408.865,269.888,384.606,273.82,378.591z"/>
			<path style="opacity:0.5;fill:#FFFFFF;" d="M288.098,378.588c0.391-0.598-0.096-1.354-0.856-1.354l-9.151,0.002
				c-6.526,0.001-6.521,38.999,0.005,38.998l9.151-0.002c0.76,0,1.247-0.756,0.856-1.355
				C284.17,408.863,284.166,384.604,288.098,378.588z"/>
		</g>
		<g>
			<path style="fill:#407BFF;" d="M403.668,323.522c-0.342-3.43-0.991-6.144-1.931-8.064l0.898-0.44
				c0.991,2.028,1.674,4.855,2.026,8.405L403.668,323.522z"/>
			<rect x="372.556" y="311.135" style="fill:#407BFF;" width="24.84" height="1"/>
			<path style="fill:#407BFF;" d="M235.506,341.537c-0.506,1.359,0.742,2.735,2.43,2.735h159.459c5.395,0,5.395-29.637,0-29.637
				H237.936c-1.688,0-2.936,1.376-2.43,2.735C237.609,323.014,237.609,335.893,235.506,341.537z"/>
			<path style="opacity:0.2;" d="M235.506,341.537c-0.506,1.359,0.742,2.735,2.43,2.735h92.007c5.395,0,5.395-29.637,0-29.637
				h-92.007c-1.688,0-2.936,1.376-2.43,2.735C237.609,323.014,237.609,335.893,235.506,341.537z"/>
			<path style="opacity:0.8;fill:#FFFFFF;" d="M235.749,318.098h91.526c4.136,0,4.136,22.711,0,22.711h-91.526
				C237.518,335.111,237.518,323.796,235.749,318.098z"/>
			<path style="opacity:0.2;fill:#FFFFFF;" d="M348.689,321.243c-0.401-1.312,0.759-2.587,2.364-2.587h37.057
				c3.931,0,3.931,21.595,0,21.595h-37.057c-1.605,0-2.765-1.275-2.364-2.587C349.957,333.509,349.957,325.397,348.689,321.243z"/>
		</g>
	</g>
</g>
<g id="Character_1_">
	<g>
		<g>
			<path style="fill:#263238;" d="M220.601,97.98c-4.509,4.835-15.516-0.006-17.206,13.301c-1.819,14.334,5.086,21.231-3.828,24.962
				c-13.976,5.85-24.047,29.23-4.561,38.04c19.487,8.81,60.844-0.422,56.179-18.298c-4.664-17.876-3.737-27.451,1.762-35.88
				c7.256-11.122,5.698-25.426-0.207-30.609C243.536,81.418,230.834,87.009,220.601,97.98z"/>
			<path style="fill:#263238;" d="M244.655,155.53c-0.153,0-0.287-0.113-0.308-0.269c-0.023-0.17,0.096-0.327,0.266-0.35
				c3.859-0.529,6.158-1.482,7.232-2.999c1.342-1.894,0.767-4.702,0.039-8.258c-1.187-5.794-2.812-13.729,2.387-23.745
				c6.304-12.145,4.051-25.466-1.913-29.826c-0.139-0.101-0.169-0.296-0.067-0.435c0.101-0.138,0.295-0.169,0.435-0.067
				c6.168,4.508,8.546,18.19,2.099,30.614c-5.098,9.821-3.498,17.631-2.331,23.334c0.759,3.703,1.357,6.628-0.14,8.742
				c-1.181,1.667-3.613,2.701-7.656,3.255C244.684,155.529,244.669,155.53,244.655,155.53z"/>
			<path style="fill:#263238;" d="M194.24,138.211c-0.592,0-1.221-0.041-1.89-0.124c-0.171-0.021-0.292-0.176-0.271-0.347
				c0.021-0.17,0.181-0.295,0.347-0.271c2.848,0.352,4.903-0.071,6.293-1.291c2.605-2.287,2.636-7.078,2.673-12.626
				c0.041-6.279,0.088-13.396,4.156-18.242c0.111-0.131,0.307-0.149,0.439-0.038c0.131,0.11,0.148,0.306,0.038,0.438
				c-3.925,4.674-3.971,11.672-4.012,17.846c-0.037,5.698-0.069,10.618-2.884,13.089
				C197.936,137.693,196.326,138.211,194.24,138.211z"/>
			<path style="fill:#407BFF;" d="M292.388,314.612c-6.665-0.084-9.291-0.502-12.361-0.45c-3.218,0.054-3.796,0.587-7.048,0.45
				c-2.155-0.091-2.172-2.658-1.34-4.424c0.648-1.376,1.446-2.764,2.189-4.487l8.463,0.614c1.137,3.227,6.803,4.606,11.755,5.748
				C296.073,312.53,295.056,314.641,292.388,314.612z"/>
			<path style="fill:#263238;" d="M248.278,191.764c0,0,22.383,19.25,45.023,39.668c9.559,8.646-10.492,74.601-10.492,74.601
				c-0.423,1.406-7.876-0.601-9.03-1.714c0,0-1.137-51.191,3.711-61.499c-50.162-12.685-58.006-37.312-58.006-37.312l3.592-15.275
				L248.278,191.764z"/>
			<path style="opacity:0.2;" d="M222.815,211.578c2.015,2.885,5.137,6.568,9.889,10.486c5.008-5.852,3.592-15.302,3.592-15.302
				L222.815,211.578z"/>
			<g>
				<path style="fill:#263238;" d="M284.533,303.184c-0.14,0.993-0.381,2.762-0.511,4.078c-0.043,0.435-0.422,0.764-0.857,0.754
					c-3.257-0.07-8.262-1.297-9.901-1.721c-0.325-0.084-0.544-0.369-0.551-0.708l-0.07-3.651c-0.01-0.498,0.44-0.906,0.932-0.847
					l10.311,1.246C284.306,302.387,284.593,302.758,284.533,303.184z"/>
				<path style="opacity:0.3;fill:#FFFFFF;" d="M284.533,303.184c-0.14,0.993-0.381,2.762-0.511,4.078
					c-0.043,0.435-0.422,0.764-0.857,0.754c-3.257-0.07-8.262-1.297-9.901-1.721c-0.325-0.084-0.544-0.369-0.551-0.708l-0.07-3.651
					c-0.01-0.498,0.44-0.906,0.932-0.847l10.311,1.246C284.306,302.387,284.593,302.758,284.533,303.184z"/>
			</g>
			<path style="fill:#407BFF;" d="M194.471,362.436c-6.782,0-9.045-2.542-12.786-3.243c-3.202-0.607-4.057-0.325-6.637-0.778
				c-2.156-0.376-2.326-1.851-1.033-4.042c0.648-1.101,1.494-2.829,2.195-4.745l10.279,0.682c1.073,2.746,3.542,8.341,7.309,9.026
				C197.393,359.99,197.174,362.436,194.471,362.436z"/>
			<path style="fill:#263238;" d="M246.729,191.697c0,0-23.654,42.057-33.169,68.065c-9.993,27.314-25.922,72.04-27.072,90.549
				c-1.697,0.812-7.275,0.498-10.279-0.682c0,0-2.78-63.985,16.473-89.641c4.588-54.91,12.207-63.692,20.306-70.378L246.729,191.697
				z"/>
			<g>
				<path style="fill:#263238;" d="M187.732,346.523c-0.083,0.932-0.195,2.558-0.103,3.81c0.033,0.452-0.319,0.845-0.778,0.887
					c-3.835,0.351-9.174-0.88-10.864-1.304c-0.324-0.081-0.543-0.359-0.555-0.694l-0.13-3.58c-0.018-0.489,0.416-0.9,0.907-0.858
					l10.841,0.929C187.469,345.75,187.769,346.103,187.732,346.523z"/>
				<path style="opacity:0.3;fill:#FFFFFF;" d="M187.732,346.523c-0.083,0.932-0.195,2.558-0.103,3.81
					c0.033,0.452-0.319,0.845-0.778,0.887c-3.835,0.351-9.174-0.88-10.864-1.304c-0.324-0.081-0.543-0.359-0.555-0.694l-0.13-3.58
					c-0.018-0.489,0.416-0.9,0.907-0.858l10.841,0.929C187.469,345.75,187.769,346.103,187.732,346.523z"/>
			</g>
			<path style="fill:#FFB573;" d="M253.006,150.446c1.012,1.898,2.079,3.983,3.18,5.951c1.089,1.998,2.209,3.977,3.329,5.95
				c2.267,3.929,4.622,7.78,7.151,11.411l-1.357-1.209c0.811,0.592,1.952,1.187,3.28,1.626c1.323,0.441,2.799,0.817,4.339,1.073
				c1.538,0.284,3.145,0.471,4.774,0.626c1.612,0.157,3.337,0.24,4.901,0.333l0.202,0.012c1.545,0.091,2.725,1.417,2.633,2.963
				c-0.069,1.174-0.854,2.137-1.904,2.492c-1.869,0.629-3.609,1.034-5.466,1.375c-1.839,0.325-3.713,0.538-5.644,0.609
				c-1.927,0.05-3.913-0.001-5.974-0.353c-2.053-0.343-4.224-0.931-6.4-2.122c-0.43-0.235-0.796-0.541-1.094-0.894l-0.263-0.315
				c-1.594-1.905-3.14-3.836-4.56-5.829c-1.434-1.983-2.813-3.996-4.102-6.051c-1.309-2.045-2.542-4.128-3.724-6.239
				c-1.165-2.143-2.3-4.205-3.371-6.515c-1.301-2.804-0.083-6.132,2.722-7.433c2.705-1.255,5.898-0.165,7.288,2.431L253.006,150.446
				z"/>
			<path style="fill:#407BFF;" d="M247.485,142.38c6.529,2.152,7.582,5.078,11.161,15.902c-2.377,6.493-12.018,9.777-12.018,9.777
				S235.292,149.561,247.485,142.38z"/>
			<path style="fill:#407BFF;" d="M256.417,156.462c-0.364,3.583-1.288,7.85-3.218,16.236c-1.497,7.122-1.523,21.035-3.922,21.736
				c-4.611,2.274-16.152,1.399-36.288-4.824c0.638-10.399,1.851-17.458-1.608-41.325c-0.802-5.534,3.248-10.207,8.7-10.038
				c1.457,0.045,2.998,0.126,4.573,0.259c6.124,0.515,11.138,0.983,16.478,2.191c1.77,0.4,3.596,0.872,5.338,1.355
				C252.757,143.793,257.07,150.042,256.417,156.462z"/>
			<path style="fill:#FFB573;" d="M185.917,197.819l2.027-1.83c0.762-0.688,1.145-1.703,1.027-2.723l-0.55-4.769
				c-0.22-1.906-1.35-3.588-3.031-4.513l-1.041-0.573c-3.57,2.806-5.361,8.468-5.361,8.468l-0.69,1.557
				c-0.613,1.387-0.06,2.928,1.273,3.539l3.068,1.407C183.699,198.868,185.003,198.644,185.917,197.819z"/>
			<path style="fill:#FFB573;" d="M290.888,173.795l-2.558-0.958c-0.962-0.36-2.039-0.233-2.891,0.341l-3.981,2.683
				c-1.591,1.073-2.565,2.849-2.612,4.768l-0.029,1.188c4.134,1.879,9.985,0.864,9.985,0.864l1.7-0.104
				c1.514-0.094,2.627-1.294,2.556-2.758l-0.163-3.372C292.84,175.281,292.041,174.227,290.888,173.795z"/>
			<path style="fill:#FFB573;" d="M217.342,151.515l-1.287,0.584l-1.392,0.645c-0.932,0.441-1.857,0.913-2.777,1.394
				c-1.845,0.957-3.649,1.989-5.421,3.054c-1.772,1.069-3.479,2.215-5.133,3.41c-1.662,1.195-3.2,2.488-4.707,3.814l0.664-0.84
				c-0.382,0.508-0.839,1.377-1.275,2.269c-0.44,0.904-0.858,1.891-1.257,2.903c-0.794,2.026-1.574,4.143-2.294,6.292
				c-0.743,2.146-1.451,4.325-2.167,6.512l-2.156,6.568l-0.004,0.015c-0.482,1.468-2.063,2.268-3.531,1.786
				c-1.218-0.4-1.975-1.559-1.923-2.779c0.104-2.409,0.329-4.748,0.595-7.113c0.273-2.359,0.616-4.711,1.025-7.073
				c0.433-2.357,0.895-4.726,1.544-7.122c0.322-1.2,0.674-2.409,1.11-3.66c0.442-1.259,0.945-2.518,1.786-3.992
				c0.124-0.217,0.268-0.414,0.431-0.59l0.234-0.251c1.679-1.804,3.411-3.568,5.287-5.109c1.852-1.576,3.777-3.043,5.778-4.37
				c1.988-1.349,4.043-2.58,6.151-3.707c1.062-0.552,2.129-1.091,3.219-1.604c0.547-0.253,1.091-0.514,1.655-0.751
				c0.579-0.245,1.095-0.455,1.799-0.724c2.885-1.104,6.119,0.339,7.224,3.225c1.061,2.773-0.231,5.869-2.896,7.085L217.342,151.515
				z"/>
			<path style="fill:#407BFF;" d="M227.031,140.893c-4.901-3.513-7.877-3.891-19.737,1.256c-1.411,7.463,3.206,18.406,3.206,18.406
				S226.251,152.339,227.031,140.893z"/>
			<path style="fill:#FFB573;" d="M228.277,120.106c0.73,5.493,1.199,15.441-2.717,18.521c0,0,5.122-0.086,14.908,7.925
				c3.676-4.018,1.57-5.734,1.57-5.734c-5.83-2.212-5.421-6.622-4.15-10.645L228.277,120.106z"/>
			<path style="fill:#FFFFFF;" d="M238.404,144.926c-3.578,0.033-5.383,5.191-5.383,5.191s-8.576-6.839-9.755-11.65
				c1.339-0.49,3.34-1.546,3.34-1.546S236.623,142.626,238.404,144.926z"/>
			<path style="fill:#FFFFFF;" d="M241.816,144.805c0,0,2.708,0.973,3.591,5.038c1.831-7.626-1.74-8.825-1.74-8.825
				s-0.997-0.933-3.114-0.881C243.143,141.976,241.816,144.805,241.816,144.805z"/>
			<path style="opacity:0.2;" d="M232.195,124.213l5.689,5.955c-0.304,0.952-0.554,1.925-0.679,2.886
				c-2.24-0.63-5.197-3.546-5.299-5.966C231.855,125.88,231.971,124.742,232.195,124.213z"/>
			<path style="fill:#FFB573;" d="M222.124,112.117c2.046,8.546,2.73,12.196,7.856,16.091c7.711,5.858,17.72,2.064,18.259-6.777
				c0.485-7.959-2.943-20.597-11.971-23.007C227.373,96.05,220.078,103.571,222.124,112.117z"/>
			<path style="fill:#263238;" d="M223.788,118.257c3.144-1.535,6.467-9.11,1.993-12.684c3.69,0.689,7.922-0.304,11.827-3.327
				c5.1-3.948,12.617,5.934,10.143,0.104c-3.561-8.396-14.289-10.503-23.964-3.524C214.113,105.805,214.735,114.298,223.788,118.257
				z"/>
			<path style="fill:#FFFFFF;" d="M221.131,116.55c-0.061,0-0.117-0.035-0.143-0.094c-0.034-0.079,0.002-0.171,0.081-0.205
				c2.503-1.082,13.112-3.34,13.563-3.436c0.085-0.018,0.167,0.036,0.185,0.12c0.018,0.084-0.036,0.167-0.12,0.184
				c-0.11,0.023-11.029,2.347-13.504,3.417C221.173,116.546,221.151,116.55,221.131,116.55z"/>
			<path style="opacity:0.2;" d="M233.979,112.954c0,0-1.856-0.843-3.376-0.082C232.425,113.283,233.979,112.954,233.979,112.954z"
				/>
			<path style="opacity:0.2;" d="M233.905,113.757c0,0-1.817-0.4-2.982,0.692C232.615,114.434,233.905,113.757,233.905,113.757z"/>
			<path style="fill:#263238;" d="M235.859,112.881c0.141,0.725,0.632,1.266,1.098,1.208c0.466-0.057,0.729-0.691,0.588-1.416
				s-0.632-1.265-1.098-1.208C235.982,111.522,235.718,112.156,235.859,112.881z"/>
			<path style="fill:#263238;" d="M244.644,111.927c0.141,0.725,0.632,1.265,1.098,1.208c0.466-0.058,0.729-0.691,0.588-1.416
				s-0.632-1.266-1.098-1.208C244.766,110.568,244.503,111.202,244.644,111.927z"/>
			<path style="fill:#263238;" d="M245.034,110.576l1.614-0.713C246.648,109.864,246.034,111.331,245.034,110.576z"/>
			<path style="fill:#ED893E;" d="M242.948,113.321c0,0,1.638,3.071,3.18,4.504c-0.825,0.963-2.488,0.655-2.488,0.655
				L242.948,113.321z"/>
			<path style="fill:#263238;" d="M239.848,121.711c0.382,0.021,0.787,0.01,1.215-0.043c0.115-0.014,0.19-0.121,0.168-0.239
				c-0.023-0.117-0.132-0.2-0.251-0.187c-3.123,0.388-5.017-1.655-5.036-1.676c-0.082-0.091-0.217-0.103-0.301-0.027
				c-0.084,0.076-0.086,0.212-0.004,0.302C235.711,119.922,237.235,121.568,239.848,121.711z"/>
			<path style="fill:#FFB573;" d="M220.087,119.769c1.18,1.59,2.8,2.411,4.177,2.527c2.072,0.175,2.529-2.246,1.468-4.396
				c-0.954-1.935-3.182-4.357-5.029-3.521C218.884,115.202,218.737,117.951,220.087,119.769z"/>
			<path style="fill:#263238;" d="M233.051,107.373c0.112-0.004,0.219-0.052,0.294-0.143c1.155-1.428,2.721-1.212,2.739-1.209
				c0.232,0.033,0.439-0.126,0.457-0.361c0.018-0.234-0.158-0.452-0.394-0.488c-0.082-0.012-2.046-0.285-3.48,1.488
				c-0.143,0.177-0.107,0.448,0.08,0.605C232.837,107.341,232.946,107.377,233.051,107.373z"/>
			<path style="fill:#263238;" d="M246.265,106.953c0.106,0.01,0.213-0.019,0.297-0.09c0.174-0.147,0.185-0.417,0.027-0.602
				c-1.593-1.862-3.539-1.708-3.622-1.7c-0.232,0.021-0.39,0.229-0.351,0.465c0.038,0.235,0.257,0.409,0.489,0.389
				c0.076-0.007,1.588-0.104,2.855,1.377C246.042,106.888,246.153,106.942,246.265,106.953z"/>
			<path style="fill:#FFFFFF;" d="M238.572,117.406c-2.108,0-3.945-2.237-4.145-5.108c-0.099-1.427,0.216-2.799,0.888-3.864
				c0.681-1.079,1.646-1.715,2.719-1.789c2.209-0.159,4.146,2.136,4.352,5.101c0.206,2.965-1.412,5.501-3.606,5.653
				C238.71,117.403,238.641,117.406,238.572,117.406z M238.242,106.948c-0.062,0-0.124,0.002-0.187,0.006
				c-0.971,0.067-1.851,0.652-2.478,1.645c-0.636,1.008-0.934,2.314-0.84,3.676c0.193,2.793,1.98,4.947,4.02,4.813
				c2.023-0.141,3.512-2.528,3.317-5.321C241.888,109.059,240.188,106.948,238.242,106.948z"/>
			<path style="fill:#FFFFFF;" d="M247.917,116.875c-2.108,0-3.945-2.237-4.145-5.108c-0.099-1.427,0.216-2.8,0.888-3.864
				c0.681-1.079,1.645-1.715,2.718-1.789c2.194-0.157,4.148,2.136,4.353,5.101c0.099,1.427-0.216,2.8-0.888,3.864
				c-0.681,1.079-1.646,1.715-2.719,1.789C248.055,116.872,247.985,116.875,247.917,116.875z M247.586,106.418
				c-0.062,0-0.124,0.002-0.187,0.006c-0.971,0.067-1.85,0.652-2.477,1.645c-0.636,1.009-0.935,2.314-0.84,3.676
				c0.188,2.707,1.888,4.819,3.833,4.819c0.061,0,0.124-0.002,0.186-0.006c0.971-0.067,1.851-0.652,2.478-1.645
				c0.636-1.009,0.935-2.314,0.84-3.676C251.232,108.529,249.532,106.418,247.586,106.418z"/>
			<path style="fill:#FFFFFF;" d="M243.951,112.177c-0.052,0-0.102-0.026-0.132-0.072c-0.383-0.607-1.485,0.043-1.496,0.05
				c-0.075,0.043-0.169,0.02-0.213-0.053c-0.045-0.074-0.021-0.169,0.053-0.213c0.056-0.034,1.372-0.815,1.92,0.05
				c0.046,0.073,0.023,0.169-0.049,0.215C244.009,112.169,243.98,112.177,243.951,112.177z"/>
			<path style="fill:#263238;" d="M236.249,111.53l1.613-0.713C237.863,110.817,237.249,112.285,236.249,111.53z"/>
		</g>
	</g>
</g>
</svg>
