<svg width="286" height="189" viewBox="0 0 286 189" fill="none" xmlns="http://www.w3.org/2000/svg">
<path d="M22.6344 76.6808L126.486 130.341L278.272 73.2878C285.935 70.4078 286.58 59.8168 279.322 56.0288L174.897 1.51783C171.527 -0.241168 167.568 -0.483169 164.009 0.853831L17.6684 55.8118C14.3274 57.0668 11.4534 59.3308 9.4964 62.3158C2.9774 72.2588 -8.5406 96.7358 10.3074 126.289C11.9414 128.85 14.2304 130.936 16.9374 132.315L126.485 188.104L279.842 130.003C283.453 128.637 285.842 125.18 285.842 121.319C285.842 114.833 279.361 110.347 273.291 112.629L126.486 167.938L24.6854 115.645C24.6854 115.645 8.6204 97.1878 22.6344 76.6808Z" fill="#4A90E2"/>
<path d="M126.486 143.914C126.108 143.914 125.731 143.828 125.384 143.658L26.8453 95.2969C25.6063 94.6889 25.0943 93.1909 25.7023 91.9509C26.3093 90.7119 27.8063 90.1999 29.0483 90.8079L126.617 138.693L279.395 81.2439C280.686 80.7579 282.128 81.4099 282.615 82.7039C283.101 83.9959 282.447 85.4379 281.155 85.9239L127.365 143.754C127.082 143.861 126.783 143.914 126.486 143.914Z" fill="#C6C6C6"/>
<path d="M126.486 158.564C126.121 158.564 125.756 158.484 125.419 158.325L28.5764 112.604C27.3284 112.014 26.7934 110.525 27.3834 109.276C27.9734 108.028 29.4644 107.493 30.7114 108.083L126.597 153.352L279.396 95.8949C280.687 95.4079 282.129 96.0609 282.616 97.3549C283.102 98.6469 282.448 100.089 281.156 100.575L127.366 158.405C127.082 158.511 126.784 158.564 126.486 158.564Z" fill="#C6C6C6"/>
<path d="M91.3103 121.851L61.0903 107.119C56.8813 104.944 51.8633 108 51.8633 112.737V170.763L67.7173 164.959L83.5713 186.931V128.477C83.5703 126.006 85.3543 121.851 91.3103 121.851Z" fill="#FF2525"/>
<path d="M78.9014 142.219C78.9014 143.796 77.6234 145.073 76.0474 145.073C74.4714 145.073 73.1934 143.795 73.1934 142.219C73.1934 140.643 74.4714 139.365 76.0474 139.365C77.6234 139.365 78.9014 140.643 78.9014 142.219Z" fill="#4A90E2"/>
</svg>
